<?xml version="1.0" encoding="UTF-8" standalone="no"?>
<svg
   version="1.0"
   width="868.70898pt"
   height="868.70898pt"
   viewBox="0 0 868.70899 868.70899"
   preserveAspectRatio="xMidYMid"
   id="svg16"
   sodipodi:docname="DiretoDaNuvem-JustLogo.svg"
   inkscape:version="1.3 (0e150ed6c4, 2023-07-21)"
   xmlns:inkscape="http://www.inkscape.org/namespaces/inkscape"
   xmlns:sodipodi="http://sodipodi.sourceforge.net/DTD/sodipodi-0.dtd"
   xmlns="http://www.w3.org/2000/svg"
   xmlns:svg="http://www.w3.org/2000/svg">
  <defs
     id="defs16" />
  <sodipodi:namedview
     id="namedview16"
     pagecolor="#ffffff"
     bordercolor="#000000"
     borderopacity="0.25"
     inkscape:showpageshadow="2"
     inkscape:pageopacity="0.0"
     inkscape:pagecheckerboard="0"
     inkscape:deskcolor="#d1d1d1"
     inkscape:document-units="pt"
     inkscape:zoom="0.44807871"
     inkscape:cx="578.02345"
     inkscape:cy="579.13932"
     inkscape:window-width="1280"
     inkscape:window-height="697"
     inkscape:window-x="1358"
     inkscape:window-y="-8"
     inkscape:window-maximized="1"
     inkscape:current-layer="svg16" />
  <g
     id="g16"
     style="fill:#005baa;fill-opacity:1">
    <path
       d="m 512.41906,2.7 -3.1,2.8 v 27.7 c 0,16.3 0.4,28.4 0.9,29.5 3,5.6 9.8,7.5 15,4.3 1.8,-1.1 3.7,-3.2 4.2,-4.6 1.3,-3.3 1.3,-52.5 0,-55.8 -1.7,-4.6 -4.6,-6.6 -9.5,-6.6 -3.5,0 -5.2,0.6 -7.5,2.7 z"
       id="path1"
       style="fill:#005baa;stroke:none;stroke-width:0.1;fill-opacity:1" />
    <path
       d="m 561.81906,94.1 c -5.4,1.5 -6.6,5.7 -6.2,21.4 0.3,12.5 0.5,13.5 2.7,15.9 3.3,3.5 8.1,4.3 12.8,2 5.6,-2.8 6.3,-5 6.3,-20.6 V 99.1 l -3.7,-3 c -3.9,-3.2 -6.4,-3.6 -11.9,-2 z"
       id="path2"
       style="fill:#005baa;stroke:none;stroke-width:0.1;fill-opacity:1" />
    <path
       d="m 514.91906,103.9 c -1.1,0.5 -2.9,1.9 -4,3.1 -1.9,2.1 -2,3.5 -1.8,29.9 l 0.2,27.6 2.6,2.2 c 4,3.5 11.2,3.2 14.9,-0.6 2.8,-2.9 2.8,-3.1 2.7,-15.3 0,-6.7 0,-18.7 -0.1,-26.5 0,-14.1 0,-14.3 -2.7,-17.3 -3,-3.3 -8.2,-4.6 -11.8,-3.1 z"
       id="path3"
       style="fill:#005baa;stroke:none;stroke-width:0.1;fill-opacity:1" />
    <path
       d="m 464.61906,113 c -5.8,2.4 -6.8,15 -1.4,18.7 4.1,2.7 11.4,2.4 14.6,-0.6 2.1,-2 2.6,-3.4 2.6,-7.4 0,-4.2 -0.5,-5.4 -3.4,-8.3 -3.6,-3.6 -7.5,-4.3 -12.4,-2.4 z"
       id="path4"
       style="fill:#005baa;stroke:none;stroke-width:0.1;fill-opacity:1" />
    <path
       d="m 462.91906,163.5 c -2.4,2.3 -2.5,2.9 -2.5,15.5 v 13.2 l 3,3 c 2.8,2.8 3.6,3 7.8,2.5 3.4,-0.4 5.3,-1.2 6.9,-3.2 2.1,-2.4 2.3,-3.6 2.3,-14.5 0,-6.6 -0.5,-13 -1.1,-14.3 -2.4,-5.2 -12.2,-6.5 -16.4,-2.2 z"
       id="path5"
       style="fill:#005baa;stroke:none;stroke-width:0.1;fill-opacity:1" />
    <path
       d="m 558.91906,181.6 -2.5,2.7 v 87.1 87.2 l 2.8,3.2 c 5,5.9 12.1,6 16,0.2 l 2.2,-3.3 -0.2,-87.5 -0.3,-87.4 -2.8,-2.4 c -4.1,-3.5 -11.9,-3.4 -15.2,0.2 z"
       id="path6"
       style="fill:#005baa;stroke:none;stroke-width:0.1;fill-opacity:1" />
    <path
       d="m 516.71906,197.1 c -1.7,0.5 -4.3,2.3 -5.7,4 l -2.6,3.1 v 40.2 40.3 l 2.3,3.4 c 1.8,2.7 3,3.5 6.1,3.7 5.8,0.5 8.5,-0.5 10.6,-4.1 1.9,-3 2,-5.2 2,-42.9 0,-23.4 -0.4,-40.7 -1,-42.2 -0.8,-2.2 -6.5,-6.8 -8,-6.5 -0.3,0 -1.9,0.5 -3.7,1 z"
       id="path7"
       style="fill:#005baa;stroke:none;stroke-width:0.1;fill-opacity:1" />
    <path
       d="m 463.11906,228.8 -2.7,2.8 v 20.3 c 0,22 0.5,24.7 5.5,26.9 4.3,2 8.2,1.4 11.4,-1.6 l 3,-2.7 0.1,-17.5 c 0.1,-9.6 0.1,-19.2 0.1,-21.3 -0.2,-8.8 -11.4,-13.2 -17.4,-6.9 z"
       id="path8"
       style="fill:#005baa;stroke:none;stroke-width:0.1;fill-opacity:1" />
    <path
       d="m 424.91906,286.2 c -9,6 -28.6,24.5 -37.9,35.7 -5.4,6.5 -12.2,16 -16.1,22.6 -1,1.6 -1.5,1.6 -7.5,-0.4 -16.6,-5.5 -40.7,-6.4 -57.2,-2.1 -19.4,5 -37.2,14.7 -50.7,27.5 -16.7,15.9 -27.4,34.6 -32.8,57.8 l -1.8,7.9 -9,0.4 c -42.6,2 -77.3,24.2 -95.9,61.2 -11,21.9 -14.6,47.8 -10,71.7 8.4,43.2 42,77.2 86.6,87.6 8.1,1.9 12.2,2.2 32.8,2.2 21.7,0 24.5,-0.2 36.5,-2.7 25.9,-5.3 41.6,-11 66.8,-23.9 15.9,-8.2 44.8,-24.3 49.7,-27.7 5.8,-4.1 21.4,-11.2 31.6,-14.4 6,-1.9 19.2,-5.7 29.4,-8.6 22.5,-6.4 27.3,-8.1 42,-15.5 8.3,-4.1 13.9,-6.2 20.5,-7.6 10.5,-2.1 12.9,-2.8 21.3,-6.3 3.5,-1.5 10.7,-3.6 15.9,-4.6 6.1,-1.3 12,-3.3 16.2,-5.5 12.4,-6.7 23,-11.5 29.8,-13.5 3.7,-1.1 8.9,-3.2 11.6,-4.5 3.1,-1.7 6.3,-2.5 9.6,-2.5 3.6,0 6.6,-0.9 11.7,-3.6 9.9,-5.1 10.3,-5.7 6.8,-8.8 -5.4,-4.8 -11.4,-7 -19.4,-7.4 -7,-0.4 -8.2,-0.1 -16.5,3.6 -7.8,3.5 -23,8.9 -38.5,13.7 -2.5,0.7 -9.4,1.7 -15.5,2 -6,0.4 -15,1.3 -19.9,2 -4.9,0.8 -9.3,1.2 -9.7,1 -0.4,-0.3 -4.4,-0.6 -9,-0.6 -6,-0.1 -9.5,0.3 -12.4,1.5 -10.9,4.8 -17,5.5 -29.7,3.5 -13.6,-2.1 -17.9,-5.8 -18.6,-16 -0.6,-8.6 2.1,-13.6 11.2,-20.3 21.2,-15.7 30,-30.9 23.7,-41.2 -2.4,-4 -8.3,-6.8 -12.4,-6 -3.9,0.8 -11.3,8.4 -12.2,12.6 -0.4,1.7 -1.6,3.7 -2.8,4.6 -5.3,3.8 -22.4,14.4 -35.7,22.1 -25.4,14.9 -27.1,16.4 -34,29.5 -1.6,3 -7.7,12.5 -15.1,23.5 -7,10.3 -29,30.3 -45,40.8 -17.6,11.6 -36.1,19.4 -56.1,23.6 -14.1,3 -44.5,3.3 -55.8,0.6 -12.7,-3.1 -20.8,-7.9 -29,-17.2 -10,-11.3 -14.8,-26.1 -13.7,-42.4 1.6,-24.9 18.7,-44.5 44.2,-50.7 11.5,-2.8 41.1,-2.4 87.8,1.1 4.8,0.4 8.7,0.4 8.7,0.1 0,-0.3 -1.1,-1.1 -2.5,-1.9 -3.7,-1.9 -10.8,-11 -14.3,-18.2 -4.2,-8.5 -6.2,-16.9 -6.2,-25.6 0,-20.7 11.3,-38.2 30.5,-47.4 10.3,-4.9 13.7,-5.7 25.1,-5.6 21.7,0 42.6,11.8 61.1,34.3 8,9.9 9.6,9.1 10.7,-5.2 2.1,-28.6 8.7,-47.3 23.5,-67 l 5.6,-7.5 0.5,-31.5 c 0.3,-17.3 0.3,-32.6 0,-33.8 -0.5,-2.3 -0.7,-2.2 -8.5,3 z"
       id="path9"
       style="fill:#005baa;stroke:none;stroke-width:0.1;fill-opacity:1" />
    <path
       d="m 466.41906,307.8 c -1.9,0.9 -4,2.8 -4.7,4.2 -1,1.9 -1.3,14.6 -1.3,52.7 v 50.1 l 2.6,3.1 c 4.6,5.5 12.8,5 15.9,-0.9 1.4,-2.7 1.6,-9.1 1.6,-53.2 -0.1,-55.5 0.1,-53.5 -6.6,-56.4 -4.2,-1.7 -3.3,-1.7 -7.5,0.4 z"
       id="path10"
       style="fill:#005baa;stroke:none;stroke-width:0.1;fill-opacity:1" />
    <path
       d="m 603.91906,307 c -0.3,0.5 -0.7,17.3 -0.9,37.3 -0.3,36.4 -0.3,36.4 2,42.2 6.2,15.2 8.5,34.6 5.9,49.5 -2.2,12.9 -5.8,23.3 -13.7,38.8 -3.7,7.4 -6.8,13.6 -6.8,13.8 0,0.2 15.6,0.5 34.8,0.7 22.1,0.2 36.5,0.8 39.7,1.5 8,1.9 20.8,8.8 27.3,14.8 6.6,5.9 12.9,15.2 15.8,23 2.6,7.1 2.6,28.6 0,36.4 -4.7,14 -15,25.7 -28.1,32.1 -13.6,6.6 -16.7,6.8 -84.5,7.2 -55.7,0.4 -60.2,0.5 -70,2.5 -18.2,3.6 -30.1,7.8 -44.8,15.8 -25.4,13.7 -50.3,41 -60.8,66.8 -1.4,3.3 -2.9,7 -3.3,8.1 -2.4,5.5 -4.3,12.3 -6.8,23.5 -0.9,4.2 -1.6,15.7 -2,32.2 l -0.5,25.8 -21.6,0.2 -21.5,0.3 3.9,4.6 c 2.1,2.5 5,6 6.3,7.7 1.3,1.7 9.6,12.3 18.4,23.4 8.8,11.2 18,23 20.6,26.2 10.9,14 22.3,27.7 22.8,27.3 0.2,-0.3 0.6,-1.3 0.7,-2.2 0.1,-0.9 2.5,-4.6 5.2,-8.1 12,-15.7 14.8,-19.4 20.8,-26.9 24.3,-30.4 39.9,-50.1 40.2,-51 0.3,-0.6 -6.9,-1 -20.3,-1 h -20.8 l -0.3,-20.5 c -0.3,-21.1 0.3,-27.5 3.9,-38.4 4.7,-14.6 11.2,-24.8 22.5,-35.6 13.1,-12.4 23,-18 40.9,-23.3 6.6,-1.9 10.6,-2.1 73,-2.7 40.8,-0.5 67.7,-1.2 70.5,-1.8 11.8,-2.8 23.2,-6.7 30.3,-10.2 26.7,-13.3 48.9,-39.2 57.1,-66.7 8.1,-27 6,-54.7 -6.3,-81.6 -14,-30.9 -46.9,-56.2 -79.5,-60.9 l -8.1,-1.1 v -13.6 c 0,-7.5 -0.6,-16.8 -1.4,-20.6 -2.1,-11.4 -9.1,-31.2 -14.9,-42.5 -4.7,-9.2 -11.5,-20.5 -13.1,-22 -0.4,-0.3 -1.9,-2.3 -3.6,-4.5 -7.6,-10.4 -27.6,-28.7 -29,-26.5 z"
       id="path11"
       style="fill:#005baa;stroke:none;stroke-width:0.1;fill-opacity:1" />
    <path
       d="m 513.71906,320 c -1.2,0.5 -2.6,1.8 -3.2,2.8 -0.7,1.2 -1.1,15.2 -1.2,37.5 -0.2,32 0,35.8 1.5,38.2 2.4,3.7 5.9,5 10.3,3.9 7.1,-1.8 7.1,-1.9 7.8,-39.9 0.4,-22.8 0.3,-34.9 -0.4,-36.7 -2,-5.2 -9.2,-8 -14.8,-5.8 z"
       id="path12"
       style="fill:#005baa;stroke:none;stroke-width:0.1;fill-opacity:1" />
    <path
       d="m 565.81906,391.7 c -2.8,0.3 -4.9,1.2 -6.5,2.9 -2.3,2.5 -2.4,3.1 -2.4,17.8 0,16.7 0.7,19.1 6.4,22 3.3,1.8 6.9,1.1 10.5,-2.1 l 2.6,-2.3 v -17.2 c 0,-9.5 -0.4,-17.8 -0.8,-18.4 -0.7,-1.1 -4.8,-3.5 -5.4,-3.2 -0.2,0.1 -2.2,0.3 -4.4,0.5 z"
       id="path13"
       style="fill:#005baa;stroke:none;stroke-width:0.1;fill-opacity:1" />
    <path
       d="m 555.21906,447.1 c -4.5,3.4 -8.8,11.5 -10.4,19.8 -2.3,11.9 -3.2,14.6 -5.9,17.1 -1.4,1.3 -2.5,3.1 -2.5,4 0,0.9 -1.8,2.4 -4.2,3.5 -3,1.4 -5.3,3.6 -7.5,7 -6.9,10.6 -13.2,11.9 -8.7,1.7 1,-2 2.61362,-3.92079 2.51362,-4.92079 l 9.13513,-20.21434 c 0.86481,-1.91366 3.55125,-10.56487 4.45125,-14.26487 1.7,-6.5 1.6,-6.8 -0.2,-8.8 -1,-1.1 -3.3,-3 -5.1,-4.1 -2.6,-1.6 -3.7,-1.8 -5.4,-0.9 -3.9,2.1 -10,17.4 -10,25.2 0,2.1 -0.8,5 -1.7,6.5 -1.2,1.8 -1.7,4.4 -1.6,8.4 0.2,4.7 -0.3,6.5 -2.4,9.5 -3,4.6 -8.1,10.7 -14.8,18.2 l -5,5.5 4.5,-0.7 c 8.2,-1.4 9.4,-1.5 26,-2 23.9,-0.9 28.1,-1.8 31.6,-7.1 l 10.9,-12.5 c 0.2,-2.9 3.5,-17.5 7.1,-31.3 3.5,-13.2 3.5,-16.3 0,-19.3 -3.3,-2.9 -7.2,-3 -10.8,-0.3 z"
       id="path14"
       style="fill:#005baa;stroke:none;stroke-width:0.1;fill-opacity:1"
       sodipodi:nodetypes="cccsccccsccccscccccccccccc" />
    <path
       d="m 483.21906,474.7 c -3.4,3.5 -4.8,7.3 -4.8,12.7 0,2.3 -0.9,5.9 -2,8.1 -1.1,2.2 -2,4.4 -2,5 0,1.7 -5.5,12.2 -8.4,16 -1.9,2.5 -2.6,4.3 -2.2,5.9 0.5,2.2 0.8,2.2 7.2,1.4 10.1,-1.2 12.1,-2.8 18.1,-14.8 7.5,-15 10.4,-29.6 6.7,-34.8 -2.3,-3.4 -9.2,-3.1 -12.6,0.5 z"
       id="path15"
       style="fill:#005baa;stroke:none;stroke-width:0.1;fill-opacity:1" />
  </g>
</svg>
